Coordinates
version=1
nRows=26
nColumns=24
inDegrees=yes

Units are S.I. units (second, meters, Newtons, ...)
Angles are in degrees.

endheader
time	pelvis_tilt	pelvis_list	pelvis_rotation	pelvis_tx	pelvis_ty	pelvis_tz	hip_flexion_r	hip_adduction_r	hip_rotation_r	knee_angle_r	ankle_angle_r	subtalar_angle_r	mtp_angle_r	hip_flexion_l	hip_adduction_l	hip_rotation_l	knee_angle_l	ankle_angle_l	subtalar_angle_l	mtp_angle_l	lumbar_extension	lumbar_bending	lumbar_rotation
      6.62000000	     -1.28299329	      6.97668721	      4.56759996	      1.27057431	      0.86638930	     -0.24182333	     29.19266214	     -5.58899431	      3.20538893	    -12.28768832	     10.46469709	      6.80970267	      0.00000000	    -14.14017390	     11.76094903	     17.43869406	    -14.47456044	     15.68946419	     -6.01056798	      0.00000000	    -19.98254945	     -3.96462955	    -17.97299016
      6.63000000	     -1.24691227	      7.03488130	      4.89243749	      1.28400687	      0.86505766	     -0.24148618	     29.00820785	     -5.68844738	      2.46166436	    -12.73916460	     10.80468154	      6.61104080	      0.00000000	    -14.45095559	     11.66508058	     16.87258281	    -15.70109573	     15.27311124	     -4.90127854	      0.00000000	    -19.81787632	     -3.91690736	    -18.32506371
      6.64000000	     -1.16591741	      7.08134142	      5.22610792	      1.29774655	      0.86377645	     -0.24113592	     28.72778374	     -5.78233252	      1.70428139	    -13.38381029	     10.89525369	      6.16089739	      0.00000000	    -14.74579801	     11.52967230	     16.15463899	    -17.03736290	     14.66854814	     -3.73141674	      0.00000000	    -19.67424513	     -3.85794252	    -18.62708476
      6.65000000	     -1.04288642	      7.10115727	      5.55904843	      1.31177473	      0.86256000	     -0.24074594	     28.35479776	     -5.84297079	      1.01637025	    -14.17166878	     10.67813597	      5.40708622	      0.00000000	    -14.98992897	     11.33450651	     15.24723919	    -18.52084743	     13.85975273	     -2.47571425	      0.00000000	    -19.54514353	     -3.77192957	    -18.87567666
      6.66000000	     -0.86764938	      7.06689534	      5.84088183	      1.32605041	      0.86142924	     -0.24026444	     27.90956312	     -5.80664289	      0.50074134	    -15.09263376	     10.10249828	      4.25821967	      0.00000000	    -15.15979582	     11.05798512	     14.10447135	    -20.18043614	     12.83173038	     -1.14031757	      0.00000000	    -19.43995907	     -3.62954879	    -18.98652061
      6.67000000	     -0.65967229	      6.98332494	      6.10332376	      1.34045136	      0.86042429	     -0.23971943	     27.43060412	     -5.68451190	      0.23972174	    -16.14586084	      9.27708441	      2.83579626	      0.00000000	    -15.18013199	     10.70266650	     12.76870752	    -22.09074897	     11.48066470	      0.13380564	      0.00000000	    -19.36369168	     -3.43614937	    -19.06886415
      6.68000000	     -0.41224378	      6.80655967	      6.27590224	      1.35491451	      0.85955783	     -0.23903607	     26.96035046	     -5.39189363	      0.25637933	    -17.35253297	      8.28775264	      1.20227228	      0.00000000	    -15.02178781	     10.23448188	     11.20700831	    -24.27853087	      9.82640140	      1.34177300	      0.00000000	    -19.32363948	     -3.14015037	    -19.01926392
      6.69000000	     -0.13007729	      6.52623957	      6.35988051	      1.36934809	      0.85884254	     -0.23820580	     26.53196658	     -4.91357075	      0.51723239	    -18.73573038	      7.33617903	     -0.48239714	      0.00000000	    -14.65414629	      9.64223647	      9.49141336	    -26.77135150	      7.84585584	      2.38027021	      0.00000000	    -19.32839692	     -2.73578812	    -18.84340682
      6.70000000	      0.19177895	      6.15188505	      6.34759627	      1.38364456	      0.85829595	     -0.23722015	     26.15199478	     -4.25518789	      0.95989722	    -20.29272659	      6.60081474	     -2.08220299	      0.00000000	    -14.07002627	      8.93720402	      7.70232095	    -29.57711612	      5.53673841	      3.17455532	      0.00000000	    -19.40141886	     -2.23855902	    -18.53133032
      6.71000000	      0.53758364	      5.67988523	      6.28500357	      1.39771591	      0.85789596	     -0.23614549	     25.81415379	     -3.44301256	      1.45604798	    -21.98151249	      6.26332944	     -3.42730096	      0.00000000	    -13.24080543	      8.10585752	      5.91764694	    -32.71353405	      2.95733139	      3.66928207	      0.00000000	    -19.53862097	     -1.63277989	    -18.13737252
      6.72000000	      0.88959278	      5.12178903	      6.18187542	      1.41151910	      0.85760169	     -0.23497806	     25.48832013	     -2.50401496	      1.90420655	    -23.70032577	      6.40234939	     -4.47654983	      0.00000000	    -12.16024443	      7.16072444	      4.20770388	    -36.15638634	      0.14916075	      3.82306714	      0.00000000	    -19.71680594	     -0.95500356	    -17.67957920
      6.73000000	      1.26705952	      4.44113706	      6.17139157	      1.42499398	      0.85748445	     -0.23404960	     25.08423903	     -1.51048328	      2.00982260	    -25.33835492	      7.07822025	     -4.99309141	      0.00000000	    -10.86390788	      6.06388929	      2.75803764	    -39.87131365	     -2.82511505	      3.50200825	      0.00000000	    -19.95685639	     -0.09201611	    -17.23724824
      6.74000000	      1.59781377	      3.67934871	      6.11384234	      1.43805012	      0.85738086	     -0.23297330	     24.64373873	     -0.40703981	      2.10445583	    -26.76252193	      8.00231986	     -5.39792065	      0.00000000	     -9.29663194	      4.87809479	      1.43264490	    -43.79472043	     -5.87901745	      2.81306330	      0.00000000	    -20.19963977	      0.79694746	    -16.66003855
      6.75000000	      1.76085658	      2.93093143	      6.05807150	      1.45058623	      0.85719219	     -0.23194600	     24.28017491	      0.63773546	      2.08313831	    -27.94325269	      9.12066574	     -5.61214443	      0.00000000	     -7.35969793	      3.74560181	      0.31297433	    -47.83841008	     -9.11530499	      1.54539784	      0.00000000	    -20.30791364	      1.62318150	    -16.06243787
      6.76000000	      1.96004155	      2.04143060	      6.14751362	      1.46283022	      0.85729493	     -0.23125908	     23.65683050	      1.70653547	      1.70856587	    -28.68532154	     10.40096025	     -5.50216289	      0.00000000	     -5.31174258	      2.47807877	     -0.45052380	    -51.90258478	    -12.36591517	     -0.08115158	      0.00000000	    -20.45047535	      2.64645840	    -15.43284124
      6.77000000	      2.10779312	      1.13928175	      6.29651298	      1.47465622	      0.85754456	     -0.23067625	     22.92373681	      2.72033763	      1.15119757	    -29.05662135	     11.68247492	     -5.25171400	      0.00000000	     -3.08565076	      1.23102468	     -0.99997142	    -55.89168971	    -15.62876017	     -2.10806465	      0.00000000	    -20.56461872	      3.64945212	    -14.86192965
      6.78000000	      2.19859245	      0.24268146	      6.50643433	      1.48627053	      0.85803981	     -0.23029119	     22.05587916	      3.66908894	      0.50529707	    -29.03006403	     12.90578789	     -4.86820070	      0.00000000	     -0.74003895	      0.07231107	     -1.27328810	    -59.67106156	    -18.84230208	     -4.33317871	      0.00000000	    -20.57989276	      4.62457920	    -14.26506444
      6.79000000	      2.24402203	     -0.59128307	      6.70834917	      1.49758041	      0.85876161	     -0.23000830	     21.11345639	      4.52400735	     -0.18469629	    -28.72773726	     14.00795850	     -4.36007514	      0.00000000	      1.68330571	     -0.92899530	     -1.38542650	    -63.18149599	    -21.77279874	     -6.55432091	      0.00000000	    -20.56452738	      5.50551555	    -13.63840840
      6.80000000	      2.40729966	     -1.37317108	      6.89038299	      1.50883476	      0.86004449	     -0.22970563	     19.86454657	      5.37996669	     -0.73271348	    -28.06928072	     14.78653173	     -4.09263115	      0.00000000	      3.93763567	     -1.82631947	     -1.39690909	    -66.30472602	    -24.27916215	     -8.52938961	      0.00000000	    -20.66361768	      6.30121418	    -13.01839785
      6.81000000	      2.55592181	     -1.98619296	      6.99955434	      1.51987191	      0.86164925	     -0.22945522	     18.55222953	      6.07726366	     -1.16784460	    -27.26714646	     15.41790311	     -3.74920832	      0.00000000	      6.13782307	     -2.44690902	     -1.37556515	    -69.02733770	    -26.10102363	    -10.14094598	      0.00000000	    -20.78486000	      6.87936932	    -12.37817609
      6.82000000	      2.69164544	     -2.40321835	      6.99816432	      1.53091445	      0.86363273	     -0.22918554	     17.15055911	      6.60688807	     -1.43466131	    -26.31743486	     15.90795106	     -3.43454362	      0.00000000	      8.21662973	     -2.79665855	     -1.42524422	    -71.28268719	    -27.10166900	    -11.20131045	      0.00000000	    -20.86903462	      7.20619235	    -11.71101369
      6.83000000	      2.84422483	     -2.61234651	      6.83083124	      1.54181426	      0.86596533	     -0.22883741	     15.68091846	      6.96040345	     -1.47944942	    -25.31814480	     16.27475652	     -3.08264567	      0.00000000	     10.12415703	     -2.89004218	     -1.63622476	    -73.07960922	    -27.06496391	    -11.59821025	      0.00000000	    -21.02889644	      7.26554442	    -10.99384701
      6.84000000	      2.91570588	     -2.65262460	      6.61217793	      1.55254094	      0.86849070	     -0.22851318	     14.25405499	      7.13414362	     -1.40810306	    -24.25491748	     16.44895667	     -2.84463364	      0.00000000	     11.99923431	     -2.75775205	     -1.91013466	    -74.44508060	    -26.05051164	    -11.42719334	      0.00000000	    -21.12936407	      7.12411715	    -10.33698817
      6.85000000	      2.97272027	     -2.49512187	      6.25733140	      1.56316955	      0.87122322	     -0.22809498	     12.81401462	      7.10982392	     -1.17837591	    -23.18092696	     16.59339446	     -2.55612649	      0.00000000	     13.72084488	     -2.42084499	     -2.34956540	    -75.34952888	    -24.03832004	    -10.51901667	      0.00000000	    -21.24839088	      6.73448451	     -9.68573596
      6.86000000	      2.99955536	     -2.19166539	      5.81786173	      1.57359655	      0.87404879	     -0.22761479	     11.41254743	      6.91545848	     -0.89829653	    -22.11861929	     16.70015731	     -2.20065829	      0.00000000	     15.33791156	     -1.93287544	     -2.88123701	    -75.82178556	    -21.20669288	     -9.00289413	      0.00000000	    -21.38970185	      6.16228822	     -9.03225991
      6.87000000	      2.99466824	     -1.78684180	      5.36074532	      1.58388703	      0.87688686	     -0.22713820	     10.04749018	      6.59255256	     -0.58838546	    -21.04817373	     16.73267248	     -1.87185613	      0.00000000	     16.86355124	     -1.34252560	     -3.43033734	    -75.87387427	    -17.79167655	     -7.02113101	      0.00000000	    -21.52008819	      5.48428649	     -8.44389827
